<svg width="512" height="512" viewBox="0 0 512 512" fill="none" xmlns="http://www.w3.org/2000/svg">
<path d="M429.856 410.856C398.581 442.132 358.568 463.204 315.085 471.3C271.602 479.396 226.687 474.136 186.251 456.211C145.815 438.287 111.755 408.54 88.5523 370.884C65.3498 333.228 54.0932 289.429 56.2639 245.252C58.4347 201.075 73.9311 158.59 100.714 123.391C127.496 88.191 164.309 61.9258 206.307 48.0522C248.305 34.1787 293.52 33.3471 336 45.6669C378.48 57.9867 416.234 82.8804 444.292 117.072L429.453 129.249C403.854 98.055 369.409 75.3433 330.653 64.1034C291.897 52.8634 250.645 53.6221 212.328 66.2796C174.011 78.9371 140.425 102.9 115.99 135.014C91.5556 167.129 77.4174 205.889 75.437 246.194C73.4565 286.499 83.7265 326.458 104.895 360.814C126.064 395.169 157.139 422.309 194.03 438.662C230.922 455.015 271.9 459.814 311.572 452.428C351.243 445.042 387.749 425.817 416.283 397.283L429.856 410.856Z" fill="#A854F7"/>
<path d="M275 96.7273C187.042 96.7273 115.727 168.042 115.727 256C115.727 343.958 187.042 415.273 275 415.273C362.958 415.273 434.273 343.958 434.273 256C434.273 168.042 362.958 96.7273 275 96.7273ZM261.727 163.091H288.273V189.74C312.96 190.311 327.702 202.699 327.702 222.74C327.702 236.81 317.315 249.057 303.697 251.075V252.734C321.27 254.021 334.053 267.277 334.053 284.386C334.053 307.613 316.53 322.298 288.273 322.338V348.909H261.727V322.364H228.545V189.636H261.727V163.091ZM256.335 210.893V244.646H277.203C292.202 244.646 300.379 238.493 300.379 227.821C300.379 217.243 292.757 210.893 279.511 210.893H256.335ZM256.335 263.414V301.107H281.066C297.073 301.107 305.719 294.385 305.719 281.975C305.719 269.831 296.783 263.414 280.418 263.414H256.335Z" fill="#A854F7"/>
</svg>
